<svg width="320" height="177" viewBox="0 0 320 177" fill="none" xmlns="http://www.w3.org/2000/svg">
<path d="M189.333 129.578L192.889 73.7777L288 60.4443V79.111L232.889 79.9999V101.333H295.111V129.578H189.333Z" fill="#01532B"/>
<path d="M193.778 51.5556L195.556 0H301.333L300.444 28.4444H236.64L235.556 48L193.778 51.5556Z" fill="black"/>
<path d="M168 76.4443L165.334 129.778H119.111L93.3335 85.3332L69.3335 87.1111L68.4447 129.778H31.1113L33.778 88.8888L69.3335 87.1111L93.3335 85.3332L128 81.7777L132.445 85.3332V80.8888L168 76.4443Z" fill="#01532B"/>
<path d="M171.556 0.888672L168 55.1109L132.445 58.6665L134.223 0.888672H171.556L168 55.1109L132.445 58.6665L134.223 0.888672H171.556Z" fill="black"/>
<path d="M119.111 61.3333L80.8892 64.8889L71.1114 47.1111L70.2225 66.6667L34.667 70.2222L36.4448 0H86.2225L119.111 61.3333Z" fill="#040404"/>
<path d="M320 54.2222C283.556 66.6666 77.3333 95.1111 0 89.7777L160.889 75.5555L320 54.2222Z" fill="#0A784E"/>
<path d="M26 176.358L26.4877 171.171L27.4388 153.584L27.7071 146.495V142.642C30.227 142.675 32.4543 142.692 34.389 142.692C35.7709 142.692 37.7137 142.675 40.2173 142.642L50.6548 161.809L52.0936 164.625C52.2724 161.859 52.4513 157.981 52.6301 152.992C52.8252 148.002 52.9227 144.552 52.9227 142.642C54.9224 142.675 56.5238 142.692 57.7269 142.692C58.2796 142.692 59.8729 142.675 62.5066 142.642L61.9214 150.003L60.824 170.454L60.6776 176.358C58.5641 176.325 56.5888 176.308 54.7517 176.308C53.2235 176.308 51.11 176.325 48.4112 176.358C47.5658 174.744 46.9399 173.575 46.5335 172.85L42.4365 165.811C41.0871 163.506 39.8434 161.299 38.7054 159.191C37.9575 157.857 37.1853 156.392 36.3887 154.795L35.8765 166.502L35.6327 176.358C33.6167 176.325 32.0804 176.308 31.0236 176.308C30.1295 176.308 28.4549 176.325 26 176.358Z" fill="black"/>
<path d="M87.137 142C89.7383 142 92.2419 142.354 94.6481 143.062C97.0542 143.77 99.1596 144.906 100.964 146.471C102.769 148.019 104.118 149.805 105.012 151.831C105.907 153.856 106.354 156.186 106.354 158.821C106.354 161.587 105.858 164.131 104.866 166.453C103.891 168.758 102.476 170.718 100.623 172.332C98.7694 173.945 96.5584 175.131 93.9896 175.888C91.4209 176.63 88.7465 177 85.9665 177C83.2189 177 80.5852 176.638 78.0652 175.913C75.5453 175.172 73.3505 173.987 71.4809 172.356C69.6275 170.71 68.3106 168.882 67.5303 166.873C66.7499 164.864 66.3597 162.633 66.3597 160.179C66.3597 156.573 67.1807 153.411 68.8227 150.694C70.481 147.961 72.9278 145.829 76.1631 144.297C79.4146 142.766 83.0726 142 87.137 142ZM86.6981 149.435C84.8284 149.435 83.1376 149.904 81.6257 150.843C80.1137 151.765 78.9513 153.057 78.1384 154.721C77.3255 156.367 76.9191 158.137 76.9191 160.031C76.9191 161.777 77.2849 163.374 78.0165 164.823C78.7643 166.272 79.8942 167.408 81.4062 168.231C82.9182 169.038 84.5195 169.442 86.2103 169.442C88.0149 169.442 89.6651 168.989 91.1608 168.083C92.6728 167.161 93.8189 165.877 94.5993 164.23C95.3959 162.567 95.7942 160.83 95.7942 159.018C95.7942 157.256 95.4284 155.634 94.6968 154.152C93.9653 152.654 92.8922 151.493 91.4778 150.67C90.0634 149.846 88.4702 149.435 86.6981 149.435Z" fill="black"/>
<path d="M119.108 176.358L118.205 173.344L112.255 155.98L107.573 142.642C109.784 142.675 111.751 142.692 113.474 142.692C114.531 142.692 116.19 142.675 118.449 142.642C118.823 144.108 119.116 145.219 119.327 145.977C119.62 146.965 120.173 148.751 120.986 151.337L124.57 163.02C124.928 164.238 125.367 165.827 125.887 167.787L127.009 164.946L135.52 146.076C135.666 145.73 135.829 145.335 136.008 144.89C136.203 144.445 136.503 143.696 136.91 142.642C139.267 142.675 141.161 142.692 142.592 142.692C143.486 142.692 145.258 142.675 147.908 142.642C146.25 145.771 144.372 149.426 142.275 153.609L133.862 170.504C133.049 172.151 132.138 174.102 131.13 176.358C128.399 176.325 126.448 176.308 125.278 176.308C124.188 176.308 122.132 176.325 119.108 176.358Z" fill="black"/>
<path d="M143.543 176.358L145.567 172.801L158.175 148.743L159.516 146.051C159.906 145.26 160.451 144.124 161.15 142.642C164.011 142.675 166.101 142.692 167.417 142.692C169.71 142.692 171.831 142.675 173.782 142.642L177.343 152.942L184.586 172.752L186 176.358C183.187 176.325 181.48 176.308 180.879 176.308C179.513 176.308 177.505 176.325 174.855 176.358C174.14 173.641 173.108 170.446 171.758 166.774H159.467C158.053 169.672 156.59 172.867 155.078 176.358C152.054 176.325 150.201 176.308 149.518 176.308C148.282 176.308 146.291 176.325 143.543 176.358ZM162.418 159.586H170.002C168.117 153.774 167.084 150.571 166.905 149.978C165.832 152.399 164.922 154.383 164.174 155.931L162.418 159.586Z" fill="black"/>
<path d="M200 176C200.422 171.735 200.725 168.163 200.911 165.287C201.113 162.41 201.307 158.591 201.492 153.829C201.695 149.051 201.796 145.885 201.796 144.331L201.771 142.149C205.75 142.182 210.564 142.198 216.213 142.198C221.423 142.198 226.018 142.182 229.998 142.149L229.947 142.967C229.93 143.166 229.888 143.885 229.821 145.125L229.669 147.828C229.635 148.407 229.618 148.993 229.618 149.589C226.364 149.456 223.632 149.39 221.423 149.39C218.995 149.39 217.351 149.398 216.491 149.415C215.648 149.415 214.324 149.448 212.52 149.514L212.217 155.193C214.206 155.243 216.525 155.268 219.172 155.268C220.117 155.268 222.629 155.21 226.71 155.094C226.541 157.21 226.381 159.732 226.229 162.658C223.312 162.625 221.069 162.608 219.501 162.608C217.174 162.608 214.569 162.666 211.685 162.782L211.382 168.808H214.291C215.151 168.808 216.93 168.783 219.627 168.734L224.863 168.61C225.639 168.593 226.937 168.527 228.758 168.411C228.556 170.858 228.387 173.388 228.252 176C224.138 175.967 219.627 175.95 214.721 175.95L203.592 175.975L200 176Z" fill="#01532B"/>
<path d="M234.12 176C234.441 173.09 234.694 170.47 234.879 168.139C235.065 165.807 235.225 163.104 235.36 160.029C235.495 156.954 235.596 153.714 235.663 150.308C235.731 146.885 235.765 144.166 235.765 142.149C237.872 142.198 239.575 142.223 240.874 142.223C242.223 142.223 243.867 142.19 245.806 142.124C247.745 142.041 249.634 142 251.472 142C253.63 142 255.552 142.083 257.238 142.248C258.503 142.364 259.65 142.603 260.678 142.967C261.724 143.331 262.601 143.777 263.309 144.306C264.017 144.819 264.607 145.398 265.079 146.042C265.551 146.687 265.914 147.448 266.167 148.324C266.437 149.184 266.572 150.109 266.572 151.101C266.572 152.209 266.428 153.251 266.142 154.226C265.855 155.185 265.4 156.094 264.776 156.954C264.169 157.797 263.393 158.533 262.449 159.161C261.521 159.773 260.215 160.401 258.528 161.046L259.844 164.195C260.215 165.072 260.611 165.965 261.032 166.874L264.422 174.14C264.573 174.454 264.843 175.074 265.231 176C262.449 175.967 260.577 175.95 259.616 175.95C258.402 175.95 256.412 175.967 253.647 176C253.377 175.14 252.888 173.545 252.18 171.214C251.893 170.238 251.649 169.486 251.446 168.957C251.042 167.783 250.443 166.138 249.65 164.022L247.045 157.004C247.956 157.169 248.85 157.252 249.726 157.252C250.957 157.252 252.07 157.07 253.065 156.706C254.077 156.342 254.836 155.78 255.341 155.02C255.864 154.259 256.126 153.457 256.126 152.614C256.126 151.903 255.932 151.283 255.544 150.754C255.156 150.209 254.541 149.804 253.697 149.539C252.871 149.274 251.59 149.142 249.853 149.142C249.263 149.142 248.647 149.159 248.006 149.192C247.383 149.208 246.649 149.225 245.806 149.241C245.587 152.631 245.393 156.764 245.224 161.641C245.056 166.518 244.946 171.305 244.895 176C242.079 175.967 240.25 175.95 239.407 175.95C238.429 175.95 236.667 175.967 234.12 176Z" fill="#01532B"/>
<path d="M265.965 176L268.064 172.429L281.14 148.274L282.532 145.571C282.936 144.778 283.501 143.637 284.226 142.149C287.194 142.182 289.361 142.198 290.727 142.198C293.104 142.198 295.305 142.182 297.328 142.149L301.021 152.49L308.533 172.379L310 176C307.083 175.967 305.312 175.95 304.688 175.95C303.272 175.95 301.19 175.967 298.441 176C297.699 173.272 296.628 170.065 295.229 166.378H282.481C281.014 169.288 279.496 172.495 277.928 176C274.792 175.967 272.87 175.95 272.161 175.95C270.88 175.95 268.814 175.967 265.965 176ZM285.541 159.161H293.408C291.452 153.325 290.381 150.109 290.195 149.514C289.083 151.945 288.138 153.937 287.363 155.491L285.541 159.161Z" fill="#01532B"/>
</svg>
